{"title":"Legion (2010).BRrip.XviD - Italian English.Ac3 - 5.1 - Sub Ita E","uid":11716693,"size":1818525651,"categoryP":"video","categoryS":"movies","magnet":"?xt=urn:btih:07a81a33f0367475e788c6eec75a935800953ec9&amp;dn=Legion+%282010%29.BRrip.XviD+-+Italian+English.Ac3+-+5.1+-+Sub+Ita+E&amp;tr=udp%3A%2F%2Ftracker.openbittorrent.com%3A80&amp;tr=udp%3A%2F%2Fopen.demonii.com%3A1337&amp;tr=udp%3A%2F%2Ftracker.coppersurfer.tk%3A6969&amp;tr=udp%3A%2F%2Fexodus.desync.com%3A6969","seeders":3,"leechers":1,"uploader":"robbyrs4","files":7,"time":1424613204,"description":"Legion (2010).BRrip.XviD - Italian English.Ac3 - 5.1 - Sub Ita Eng.MIRCrew\n\n\n\n[center]\n\n[color=red][b][img]http://s19.postimg.org/rr1b4yhxv/banner_mircrew_2015.png[/img]\n\n[u]NO FOUND ONLY ORIGINAL RELEASE[/u]\n\nLegion (2010)\n\n[img]http://s19.postimg.org/q504hso5v/image.jpg[/img]\n\n\n[URL=http://www.imdb.com/title/tt1038686/][IMG]http://www.userlogos.org/files/logos/Sucka/imdb_new.png[/IMG][/URL]  \n\n[img]http://s19.postimg.org/vz5tzn42b/1_scheda.png[/img]\n\nTitolo originale \tLegion\nLingua originale \tInglese\nPaese di produzione \tUSA\nAnno \t2010\nDurata \t100 minuti\nGenere \torrore, azione\nRegia \tScott Stewart\nSceneggiatura \tPeter Schink, Scott Stewart\nProduttore \tDavid Lancaster, Michel Litvak, Steve Beswick (co-produttore), Marc Sadeghi (co-produttore)\nProduttore esecutivo \tGary Michael Walters, Scott Stewart, Jonathan Rothbart\nCasa di produzione \tBold Films\nDistribuzione (Italia) \tSony Pictures\nFotografia \tJohn Lindley\nMontaggio \tSteven Kemper\nMusiche \tJohn Frizzell\nScenografia \tJeff Higinbotham\nCostumi \tWendy Partridge\n\n[img]http://s19.postimg.org/q8fnlww2b/1_cast.png[/img]\n\n\n    Paul Bettany: Arcangelo Michele\n    Kevin Durand: Arcangelo Gabriele\n    Lucas Black: Jeep Hanson\n    Adrianne Palicki: Charlie\n    Willa Holland: Audrey Anderson\n    Tyrese Gibson: Kyle Williams\n    Charles S. Dutton: Percy Walker\n    Kate Walsh: Sandra Anderson\n    Jon Tenney: Howard Anderson\n    Dennis Quaid: Bob Hanson\n    Jeanette Miller: Gladys Foster\n    Cameron Harlow: Minivan Boy\n    Doug Jones: uomo del gelato\n\n\n[img]http://s19.postimg.org/okgi79i6r/1_trama.png[/img]. \n\n\n\nLos Angeles. L'Arcangelo Michele scende di nascosto sulla Terra e, dopo essersi tagliato le ali per impedire agli altri angeli di rintracciarlo, saccheggia un deposito d'armi e parte verso una destinazione sconosciuta..................\n\n[img]http://s19.postimg.org/fzn6g380j/1_story.png[/img]\n\nAn out-of-the-way diner becomes the unlikely battleground for the survival of the human race. When God loses faith in humankind, he sends his legion of angels to bring on the Apocalypse. Humanity's only hope lies in a group of strangers trapped in a desert diner with the Archangel Michael......\n &lt;a href=&quot;\nhttp://s19.postimg.org/xarvk8x8z/vlcsnap_2015_02_22_12h55m11s0.png[/img]&quot; rel=&quot;nofollow&quot; target=&quot;_NEW&quot;&gt;\nhttp://s19.postimg.org/xarvk8x8z/vlcsnap_2015_02_22_12h55m11s0.png[/img]&lt;/a&gt;\n &lt;a href=&quot;\nhttp://s19.postimg.org/cs1ksx8pf/vlcsnap_2015_02_22_12h55m34s233.png[/img]&quot; rel=&quot;nofollow&quot; target=&quot;_NEW&quot;&gt;\nhttp://s19.postimg.org/cs1ksx8pf/vlcsnap_2015_02_22_12h55m34s233.png[/img]&lt;/a&gt;\n &lt;a href=&quot;\nhttp://s19.postimg.org/snltih9w3/vlcsnap_2015_02_22_12h55m40s45.png[/img]&quot; rel=&quot;nofollow&quot; target=&quot;_NEW&quot;&gt;\nhttp://s19.postimg.org/snltih9w3/vlcsnap_2015_02_22_12h55m40s45.png[/img]&lt;/a&gt;\n\n[IMG]http://img153.imageshack.us/img153/3158/restateinseedblood.gif[/img]\n\n\n[img]http://imgur.com/lvhU6.gif[/img]\n\n\n[img]http://s19.postimg.org/a2jaz9qvn/1_dati.png[/img]\n\n\n[spoiler]\nGeneral\nComplete name                            : Legion (2010).ita.eng.sub.ita.eng.MIRCrewLegion (2010).ita.eng.sub.ita.eng.MIRCrew.avi\nFormat                                   : AVI\nFormat/Info                              : Audio Video Interleave\nFile size                                : 1.69 GiB\nDuration                                 : 1h 40mn\nOverall bit rate                         : 2 411 Kbps\nMovie name                               : MIRCrew by robbyrs\nWriting application                      : VirtualDubMod 1.5.10.2 (build 2540/release)\nWriting library                          : VirtualDubMod build 2540/release\n\nVideo\nID                                       : 0\nFormat                                   : MPEG-4 Visual\nFormat profile                           : Simple@L3\nFormat settings, BVOP                    : No\nFormat settings, QPel                    : No\nFormat settings, GMC                     : No warppoints\nFormat settings, Matrix                  : Default (H.263)\nCodec ID                                 : XVID\nCodec ID/Hint                            : XviD\nDuration                                 : 1h 40mn\nBit rate                                 : 1 501 Kbps\nWidth                                    : 720 pixels\nHeight                                   : 300 pixels\nDisplay aspect ratio                     : 2.40:1\nFrame rate                               : 23.976 fps\nColor space                              : YUV\nChroma subsampling                       : 4:2:0\nBit depth                                : 8 bits\nScan type                                : Progressive\nCompression mode                         : Lossy\nBits/(Pixel*Frame)                       : 0.290\nStream size                              : 1.05 GiB (62%)\nWriting library                          : XviD 64\n\nAudio #1\nID                                       : 1\nFormat                                   : AC-3\nFormat/Info                              : Audio Coding 3\nMode extension                           : CM (complete main)\nCodec ID                                 : 2000\nDuration                                 : 1h 40mn\nBit rate mode                            : Constant\nBit rate                                 : 448 Kbps\nChannel(s)                               : 6 channels\nChannel positions                        : Front: L C R, Side: L R, LFE\nSampling rate                            : 48.0 KHz\nBit depth                                : 16 bits\nCompression mode                         : Lossy\nStream size                              : 321 MiB (19%)\nAlignment                                : Split accross interleaves\nInterleave, duration                     : 42 ms (1.00 video frame)\nInterleave, preload duration             : 500 ms\n\nAudio #2\nID                                       : 2\nFormat                                   : AC-3\nFormat/Info                              : Audio Coding 3\nMode extension                           : CM (complete main)\nCodec ID                                 : 2000\nDuration                                 : 1h 40mn\nBit rate mode                            : Constant\nBit rate                                 : 448 Kbps\nChannel(s)                               : 6 channels\nChannel positions                        : Front: L C R, Side: L R, LFE\nSampling rate                            : 48.0 KHz\nBit depth                                : 16 bits\nCompression mode                         : Lossy\nStream size                              : 321 MiB (19%)\nAlignment                                : Split accross interleaves\nInterleave, duration                     : 42 ms (1.00 video frame)\nInterleave, preload duration             : 500 ms\n\n\n[/spoiler]\n\n[/color][/b][/center]\n\n&amp;&amp;e4t67uk","torrent":{"xt":"urn:btih:07a81a33f0367475e788c6eec75a935800953ec9","amp;dn":"Legion+%282010%29.BRrip.XviD+-+Italian+English.Ac3+-+5.1+-+Sub+Ita+E","amp;tr":["udp%3A%2F%2Ftracker.openbittorrent.com%3A80","udp%3A%2F%2Fopen.demonii.com%3A1337","udp%3A%2F%2Ftracker.coppersurfer.tk%3A6969","udp%3A%2F%2Fexodus.desync.com%3A6969"],"infoHash":"07a81a33f0367475e788c6eec75a935800953ec9","infoHashBuffer":{"type":"Buffer","data":[7,168,26,51,240,54,116,117,231,136,198,238,199,90,147,88,0,149,62,201]},"announce":[],"urlList":[]}}